<svg width="150" height="150" viewBox="0 0 1396 1079" fill="none" xmlns="http://www.w3.org/2000/svg">
<path d="M1109.16 1073.7C1079.03 1073.7 1052.85 1074.06 1026.71 1073.29C1023.03 1073.18 1018.89 1068.03 1016 1064.39C829.12 829.28 751.14 562.4 784.74 263.85C790.15 215.77 802.34 168.44 811.55 120.79C812.56 115.58 814.52 110.56 816.74 103.12C841.11 110.13 864.87 116.42 888.09 124.3C891 125.29 893.3 135.21 892.12 140.08C873.37 217.53 863.95 296.1 863.17 375.71C860.69 629.63 938.27 856.26 1095.4 1055.69C1099.24 1060.57 1102.95 1065.55 1109.17 1073.69L1109.16 1073.7Z" fill="white"/>
<path d="M286.33 1071.22C316.46 1071.22 342.64 1071.58 368.78 1070.81C372.46 1070.7 376.6 1065.55 379.49 1061.91C566.37 826.8 644.35 559.92 610.75 261.37C605.34 213.29 593.15 165.96 583.94 118.31C582.93 113.1 580.97 108.08 578.75 100.64C554.38 107.65 530.62 113.94 507.4 121.82C504.49 122.81 502.19 132.73 503.37 137.6C522.12 215.05 531.54 293.62 532.32 373.23C534.8 627.15 457.22 853.78 300.09 1053.21C296.25 1058.09 292.54 1063.07 286.32 1071.21L286.33 1071.22Z" fill="white"/>
<path d="M1252.22 1076.17C1222.09 1076.17 1195.91 1076.53 1169.78 1075.77C1166.09 1075.65 1161.96 1070.51 1159.07 1066.87C1124.76 1023.71 1094.12 979.47 1067.18 934.18C982.01 791.01 933.66 637.16 922.66 472.64C952.41 481.05 981.92 489.45 1011.2 498.13C1021.42 606.43 1047.26 709.4 1088.65 807.05C1125.95 895.07 1175.9 978.77 1238.46 1058.17C1242.29 1063.06 1246 1068.04 1252.22 1076.17Z" fill="white"/>
<path d="M1395.27 1078.65C1388.6 1078.65 1382.14 1078.66 1375.83 1078.69C1353.58 1078.75 1333.19 1078.85 1312.83 1078.23C1309.15 1078.13 1305.02 1072.98 1302.12 1069.34C1231.17 980.07 1175.91 886.24 1136.51 787.83C1169.38 797.19 1201.97 806.29 1234.28 815.53C1270.97 900.61 1319.53 981.65 1379.93 1058.64C1380.46 1059.32 1380.98 1059.98 1381.52 1060.65C1385.37 1065.52 1389.07 1070.5 1395.28 1078.65H1395.27Z" fill="white"/>
<path d="M143.27 1073.69C173.4 1073.69 199.58 1074.05 225.71 1073.29C229.4 1073.17 233.53 1068.03 236.42 1064.39C270.73 1021.23 301.37 976.99 328.31 931.7C413.48 788.53 461.83 634.68 472.83 470.16C443.08 478.57 413.57 486.97 384.29 495.65C374.07 603.95 348.23 706.92 306.84 804.57C269.54 892.59 219.59 976.29 157.03 1055.69C153.2 1060.58 149.49 1065.56 143.27 1073.69Z" fill="white"/>
<path d="M0.219971 1076.18C6.88997 1076.18 13.35 1076.19 19.66 1076.22C41.91 1076.28 62.3 1076.38 82.66 1075.76C86.34 1075.66 90.47 1070.51 93.37 1066.87C164.32 977.6 219.58 883.77 258.98 785.36C226.11 794.72 193.52 803.82 161.21 813.06C124.52 898.14 75.96 979.18 15.56 1056.17C15.03 1056.85 14.51 1057.51 13.97 1058.18C10.12 1063.05 6.41996 1068.03 0.209961 1076.18H0.219971Z" fill="white"/>
<path d="M738.47 31.5201V1078.74H649.58V27.9201L692.66 0.870117H693.57L738.47 31.5201Z" fill="white"/>
</svg>
